<?xml version="1.0" encoding="UTF-8"?>
<svg class="" enable-background="new 0 0 512 512" version="1.1" viewBox="0 0 512 512" xml:space="preserve" xmlns="http://www.w3.org/2000/svg"><g xmlns="http://www.w3.org/2000/svg"><path class="" d="m458.85 113.94c2.927 2.928 6.862 4.515 10.899 4.515 1.263 0 2.535-0.154 3.79-0.474 5.266-1.336 9.441-5.345 10.986-10.554l26.004-87.624c1.608-5.42 0.12-11.286-3.877-15.284-3.997-3.999-9.867-5.485-15.284-3.877l-87.625 26.003c-5.208 1.545-9.219 5.718-10.554 10.986-1.337 5.266 0.198 10.848 4.041 14.689l19.912 19.912-51.801 51.801c-23.69-21.975-49.208-40.777-76.057-55.992-31.126-17.638-63.35-30.093-95.778-37.019-33.009-7.051-65.459-8.206-96.448-3.431-32.216 4.964-62.209 16.248-89.146 33.539-3.924 2.52-6.498 6.682-6.999 11.32-0.501 4.636 1.126 9.25 4.425 12.549l199.52 199.52-41.276 41.276-49.32 7.582c-3.241 0.498-6.238 2.017-8.557 4.336l-48.857 48.859c-2.891 2.891-4.515 6.811-4.515 10.898s1.624 8.009 4.515 10.898l45.958 45.957c3.01 3.01 6.955 4.515 10.898 4.515 3.944 0 7.89-1.505 10.898-4.515l48.857-48.857c2.319-2.318 3.837-5.316 4.336-8.557l7.583-49.319 41.277-41.277 201.17 201.18c2.906 2.906 6.832 4.515 10.897 4.515 0.549 0 1.101-0.029 1.652-0.088 4.637-0.499 8.799-3.073 11.32-6.999 17.291-26.937 28.576-56.929 33.54-89.146 4.774-30.988 3.62-63.438-3.431-96.449-6.926-32.428-19.381-64.651-37.019-95.778-15.583-27.5-34.918-53.61-57.583-77.782l51.734-51.734 19.913 19.914zm-310.76 273.3-34.39 34.39-24.16-24.159 34.39-34.391 28.549-4.389-4.389 28.549zm78.563-124.52-185.3-185.3c89.608-45.863 207.09-19.487 302.18 68.423l-116.88 116.88zm208.76 208.76-186.96-186.96 116.94-116.94c89.188 95.392 116.16 213.75 70.018 303.9zm37.479-433.2-10.551 35.554-25.004-25.003 35.555-10.551z" fill="#656565" style="" data-original="#000000"/></g></svg>
