<?xml version="1.0" encoding="UTF-8"?>
<svg class="" width="512" height="512" enable-background="new 0 0 512 512" version="1.1" viewBox="0 0 512.01 512.01" xml:space="preserve" xmlns="http://www.w3.org/2000/svg">
<g xmlns="http://www.w3.org/2000/svg"> <path class="" d="m510.02 139.61-85.333-102.4c-1.621-1.937-4.019-3.063-6.554-3.063h-324.27c-2.534 0-4.932 1.118-6.554 3.063l-85.333 102.4c-2.125 2.543-2.586 6.084-1.178 9.079s4.42 4.915 7.731 4.915h494.93c3.311 0 6.323-1.92 7.731-4.915 1.401-2.986 0.949-6.528-1.176-9.079zm-483.27-3.072 71.108-85.333h316.27l71.108 85.333h-458.49z" fill="#656565" style="" data-original="#000000"/></g><g xmlns="http://www.w3.org/2000/svg"><path class="" d="m263.9 39.402c-1.323-3.191-4.437-5.265-7.885-5.265h-162.13c-3.055 0-5.871 1.63-7.398 4.284s-1.519 5.905 0.026 8.55l59.733 102.4c1.331 2.278 3.644 3.823 6.272 4.164 0.367 0.043 0.734 0.068 1.092 0.068 2.253 0 4.429-0.887 6.042-2.5l102.4-102.4c2.44-2.44 3.174-6.11 1.851-9.301zm-108.5 91.81-46.669-80.008h126.68l-80.008 80.008z" fill="#656565" style="" data-original="#000000"/></g><g xmlns="http://www.w3.org/2000/svg"><path class="" d="m511.11 141.28c-1.434-2.91-4.403-4.753-7.646-4.753h-494.93c-3.243 0-6.204 1.843-7.646 4.753-1.434 2.91-1.101 6.383 0.87 8.96l247.47 324.27c1.613 2.116 4.122 3.362 6.784 3.362s5.171-1.246 6.767-3.362l247.47-324.27c1.971-2.577 2.303-6.05 0.87-8.96zm-255.1 313.99-230.22-301.67h460.44l-230.22 301.67z" fill="#656565" style="" data-original="#000000"/></g><g xmlns="http://www.w3.org/2000/svg"><path class="" d="m264.15 466.76-102.4-324.27c-1.126-3.55-4.412-5.965-8.141-5.965h-145.07c-3.243 0-6.204 1.843-7.646 4.753-1.434 2.91-1.101 6.383 0.87 8.96l247.47 324.27c1.655 2.176 4.19 3.362 6.784 3.362 1.331 0 2.679-0.307 3.925-0.973 3.679-1.902 5.453-6.186 4.208-10.137zm-238.36-313.16h121.57l85.811 271.74-207.38-271.74z" fill="#656565" style="" data-original="#000000"/></g><g xmlns="http://www.w3.org/2000/svg"><path class="" d="m425.54 38.421c-1.519-2.654-4.343-4.284-7.398-4.284h-162.13c-3.447 0-6.562 2.074-7.885 5.265s-0.589 6.861 1.852 9.301l102.4 102.4c1.604 1.613 3.78 2.5 6.033 2.5 0.367 0 0.734-0.026 1.101-0.068 2.62-0.341 4.941-1.877 6.272-4.164l59.733-102.4c1.536-2.645 1.545-5.896 0.026-8.55zm-68.924 92.791-80.009-80.008h126.68l-46.668 80.008z" fill="#656565" style="" data-original="#000000"/></g><g xmlns="http://www.w3.org/2000/svg"><path class="" d="m511.13 141.3c-1.434-2.91-4.403-4.753-7.646-4.753h-145.07c-3.729 0-7.023 2.415-8.141 5.965l-102.4 324.27c-1.246 3.942 0.529 8.226 4.207 10.138 1.246 0.648 2.594 0.956 3.925 0.956 2.586 0 5.12-1.186 6.784-3.345l247.47-324.27c1.972-2.579 2.304-6.052 0.871-8.961zm-232.28 284.04 85.811-271.74h121.57l-207.38 271.74z" fill="#656565" style="" data-original="#000000"/></g></svg>
