<?xml version="1.0"?>
<svg xmlns="http://www.w3.org/2000/svg" xmlns:xlink="http://www.w3.org/1999/xlink" xmlns:svgjs="http://svgjs.com/svgjs" version="1.1" width="512" height="512" x="0" y="0" viewBox="0 0 512 512" style="enable-background:new 0 0 512 512" xml:space="preserve" class=""><g><path xmlns="http://www.w3.org/2000/svg" d="m284.6 275.9c0-3.3-2.7-6-6-6h-56.1c-3.3 0-6 2.7-6 6s2.7 6 6 6h56.1c3.3 0 6-2.7 6-6z" fill="#656565" data-original="#000000" style=""/><path xmlns="http://www.w3.org/2000/svg" d="m231.8 298.6c-3.3 0-6 2.7-6 6s2.7 6 6 6h37.4c3.3 0 6-2.7 6-6s-2.7-6-6-6z" fill="#656565" data-original="#000000" style=""/><path xmlns="http://www.w3.org/2000/svg" d="m140.3 326.6c0-11.1-9-20-20-20-11.1 0-20 9-20 20v8h-8c-11.1 0-20 9-20 20 0 11.1 9 20 20 20h8v8c0 11.1 9 20 20 20s20-9 20-20v-8h8c11.1-.1 20-9.1 19.9-20.2-.1-11-8.9-19.8-19.9-19.9h-8zm8 20c4.4 0 8 3.7 7.9 8.1 0 4.4-3.6 7.9-7.9 7.9h-14c-3.3 0-6 2.7-6 6v14c0 4.4-3.6 8-8 8s-8-3.6-8-8v-14c0-3.3-2.7-6-6-6h-14c-4.4 0-8-3.6-8-8s3.6-8 8-8h14c3.3 0 6-2.7 6-6v-14c0-4.4 3.6-8 8-8s8 3.6 8 8v14c0 3.3 2.7 6 6 6z" fill="#656565" data-original="#000000" style=""/><path xmlns="http://www.w3.org/2000/svg" d="m456.9 354.7c0-13.6-11.1-24.7-24.7-24.7s-24.7 11.1-24.7 24.7 11.1 24.7 24.7 24.7 24.7-11.1 24.7-24.7zm-37.4 0c0-7 5.7-12.7 12.7-12.7s12.7 5.7 12.7 12.7-5.7 12.7-12.7 12.7c-7 0-12.7-5.7-12.7-12.7z" fill="#656565" data-original="#000000" style=""/><path xmlns="http://www.w3.org/2000/svg" d="m329.3 379.4c13.6 0 24.7-11.1 24.7-24.7s-11.1-24.7-24.7-24.7-24.7 11.1-24.7 24.7c0 13.6 11 24.6 24.7 24.7zm0-37.5c7 0 12.7 5.7 12.7 12.7s-5.7 12.7-12.7 12.7-12.7-5.7-12.7-12.7c0-7 5.6-12.6 12.7-12.7z" fill="#656565" data-original="#000000" style=""/><path xmlns="http://www.w3.org/2000/svg" d="m380.7 430.8c13.6 0 24.7-11.1 24.7-24.7s-11.1-24.7-24.7-24.7-24.7 11.1-24.7 24.7c0 13.6 11.1 24.7 24.7 24.7zm0-37.4c7 0 12.7 5.7 12.7 12.7s-5.7 12.7-12.7 12.7-12.7-5.7-12.7-12.7c0-7 5.7-12.7 12.7-12.7z" fill="#656565" data-original="#000000" style=""/><path xmlns="http://www.w3.org/2000/svg" d="m405.4 303.2c0-13.6-11.1-24.7-24.7-24.7s-24.7 11.1-24.7 24.7 11.1 24.7 24.7 24.7c13.7 0 24.7-11.1 24.7-24.7zm-24.7 12.7c-7 0-12.7-5.7-12.7-12.7s5.7-12.7 12.7-12.7 12.7 5.7 12.7 12.7c0 7-5.7 12.7-12.7 12.7z" fill="#656565" data-original="#000000" style=""/><path xmlns="http://www.w3.org/2000/svg" d="m369.7 354.7c0 6.1 4.9 11 11 11s11-4.9 11-11-4.9-11-11-11c-6.1 0-11 4.9-11 11zm12 0c0 .6-.4 1-1 1s-1-.4-1-1 .4-1 1-1 1 .4 1 1z" fill="#656565" data-original="#000000" style=""/><path xmlns="http://www.w3.org/2000/svg" d="m48.3 385.8c-.7-2.1-1.4-4.2-1.9-6.3-.8-3.2-4-5.2-7.3-4.4-3.2.8-5.2 4-4.4 7.3v.1c.6 2.5 1.4 5 2.3 7.4 1.2 3.1 4.6 4.7 7.7 3.5 3.1-1.1 4.7-4.5 3.6-7.6z" fill="#656565" data-original="#000000" style=""/><path xmlns="http://www.w3.org/2000/svg" d="m46.1 407.7c9.5 14.2 23.3 25 39.4 30.9 3.1 1.2 6.6-.4 7.7-3.5 1.2-3.1-.4-6.6-3.5-7.7h-.1c-13.7-5-25.4-14.2-33.6-26.3-.8-1.2-1.6-2.4-2.3-3.7-1.7-2.9-5.4-3.8-8.2-2.1-2.9 1.7-3.8 5.4-2.1 8.2.8 1.4 1.7 2.8 2.7 4.2z" fill="#656565" data-original="#000000" style=""/><path xmlns="http://www.w3.org/2000/svg" d="m500.4 243.9c-2.1-2.6-5.8-3-8.4-1-2.6 2.1-3 5.8-1 8.4 1.8 2.2 3.5 4.6 5.1 6.9 1.8 2.8 5.6 3.5 8.3 1.7 2.8-1.8 3.5-5.6 1.7-8.3-1.9-2.6-3.8-5.2-5.7-7.7z" fill="#656565" data-original="#000000" style=""/><path xmlns="http://www.w3.org/2000/svg" d="m410 212.3c26 0 51 9.8 70.1 27.4 2.4 2.3 6.2 2.2 8.5-.2s2.2-6.2-.2-8.5c0 0-.1-.1-.1-.1-21.3-19.7-49.2-30.7-78.3-30.6-3.3 0-6 2.7-6 6s2.7 6 6 6z" fill="#656565" data-original="#000000" style=""/><path xmlns="http://www.w3.org/2000/svg" d="m461 272c-21.8-21.1-51.2-32.6-81.5-32.6h-109v-8c0-8.7-5.7-16.5-14-19.1v-70.4c0-12.2 9.9-22.1 22.1-22.1s22.1 9.9 22.1 22.1v10.7c.1 22.9 18.8 41.4 41.7 41.3 22.7-.1 41.1-18.5 41.3-41.3v-104.5c0-3.3-2.7-6-6-6s-6 2.7-6 6v104.4c-.1 16.3-13.4 29.4-29.6 29.3-16.1-.1-29.2-13.2-29.3-29.3v-10.7c0-18.8-15.3-34.1-34.1-34.1s-34.1 15.3-34.1 34.1v70.4c-8.3 2.6-14 10.4-14 19.1v8h-56c-3.3 0-6 2.7-6 6s2.7 6 6 6h205.1c27.2-.1 53.4 10.3 73.1 29.2 40.9 39.7 41.9 105.1 2.1 146s-105.1 41.9-146 2.1c-4.6-4.4-8.7-9.3-12.4-14.5-10.2-14.5-26.9-23.1-44.6-23.1h-2.3c-17.8 0-34.4 8.7-44.7 23.2-33.3 46.7-98.2 57.5-144.8 24.2-3.8-2.7-7.4-5.7-10.8-8.9-41.4-39.4-43-104.9-3.6-146.3.4-.5.9-.9 1.4-1.4 19.8-19.7 46.6-30.7 74.5-30.6h13.1c3.3 0 6-2.7 6-6s-2.7-6-6-6h-14.2c-63.9 0-115.7 51.4-115.8 115.1s51.3 115.4 114.9 115.6h.7c1.3 0 2.7 0 4.1-.1 36.1-1 69.5-19 90.3-48.5 8-11.4 21-18.1 34.9-18.2h2.3c13.8 0 26.8 6.7 34.8 18 21.6 30.5 56.7 48.7 94.1 48.7 63.7 0 115.3-51.6 115.3-115.3-.1-31-12.7-60.8-35.1-82.5zm-202.5-32.6h-16.1v-8c0-4.4 3.7-8 8.1-7.9 4.4 0 7.9 3.6 7.9 7.9v8z" fill="#656565" data-original="#000000" style=""/></g></svg>
