<?xml version="1.0"?>
<svg xmlns="http://www.w3.org/2000/svg" xmlns:xlink="http://www.w3.org/1999/xlink" xmlns:svgjs="http://svgjs.com/svgjs" version="1.1" width="512" height="512" x="0" y="0" viewBox="0 0 968 968" style="enable-background:new 0 0 512 512" xml:space="preserve"><g>
<g xmlns="http://www.w3.org/2000/svg">
	<path d="M109.137,944.719l22.668,22.666l21.744-23.555l491.279-532.205l14.238,48.7l17.512,59.901l36.893-50.337l71.406-97.429   l120.74,3.588L968,377.902l-36.475-50.642l-70.596-98.018l40.725-113.723l21.039-58.755L863.26,75.803l-115.035,36.851   l-95.572-73.873L603.273,0.615l-0.258,62.408l-0.502,120.793l-99.791,68.067l-51.557,35.167l59.274,19.531l48.201,15.883   L23.668,813.842L0,835.58l22.724,22.725L109.137,944.719z M612.92,400.78l-45.01-45.009l24.242-22.266l33.014,10.879l9.578,32.755   L612.92,400.78z M520.08,277.327l113.168-77.192l0.568-136.986l108.383,83.776l130.457-41.791l-46.182,128.968l80.059,111.158   l-136.928-4.07l-80.979,110.49l-19.43-66.457l-19.012-65.026l-65.561-21.602L520.08,277.327z M545.205,376.625l46.807,46.806   L130.916,922.938l-86.413-86.412L545.205,376.625z" fill="#656565" data-original="#000000" style=""/>
</g>
<g xmlns="http://www.w3.org/2000/svg">
</g>
<g xmlns="http://www.w3.org/2000/svg">
</g>
<g xmlns="http://www.w3.org/2000/svg">
</g>
<g xmlns="http://www.w3.org/2000/svg">
</g>
<g xmlns="http://www.w3.org/2000/svg">
</g>
<g xmlns="http://www.w3.org/2000/svg">
</g>
<g xmlns="http://www.w3.org/2000/svg">
</g>
<g xmlns="http://www.w3.org/2000/svg">
</g>
<g xmlns="http://www.w3.org/2000/svg">
</g>
<g xmlns="http://www.w3.org/2000/svg">
</g>
<g xmlns="http://www.w3.org/2000/svg">
</g>
<g xmlns="http://www.w3.org/2000/svg">
</g>
<g xmlns="http://www.w3.org/2000/svg">
</g>
<g xmlns="http://www.w3.org/2000/svg">
</g>
<g xmlns="http://www.w3.org/2000/svg">
</g>
</g></svg>
