<?xml version="1.0" encoding="UTF-8"?>
<svg class="" enable-background="new 0 0 512 512" version="1.1" viewBox="0 0 512 512" xml:space="preserve" xmlns="http://www.w3.org/2000/svg"><g xmlns="http://www.w3.org/2000/svg"><path d="m212.36 171.92c-3.899-3.909-10.237-3.909-14.136 0-3.909 3.899-3.909 10.227 0 14.136 3.899 3.899 10.237 3.899 14.136 0 3.909-3.909 3.909-10.238 0-14.136z" fill="#656565" style="" data-original="#000000"/></g><g xmlns="http://www.w3.org/2000/svg"><path d="m452.9 299.35-163.75-163.76v-45.545c0-49.612-40.362-89.974-89.974-89.974s-89.974 40.362-89.974 89.974v114.72l-79.729 79.73-9e-3 9e-3s-5e-3 6e-3 -9e-3 0.01l-14.837 14.837c-19.483 19.483-19.484 51.194 0 70.691l127.24 127.23c9.44 9.447 21.995 14.65 35.348 14.65 13.352 0 25.906-5.203 35.345-14.647l14.835-14.834 4e-3 -4e-3 166.03-166.02h52.413c4.044 0 7.689-2.436 9.236-6.171 1.546-3.735 0.69-8.035-2.168-10.894zm-180.73-73.767c1.947-1.948 4.506-2.922 7.064-2.922 2.561 0 5.122 0.976 7.073 2.926 1.89 1.887 2.931 4.398 2.931 7.068 0 2.669-1.041 5.18-2.931 7.066l-5e-3 5e-3c-1.888 1.887-4.397 2.927-7.066 2.927s-5.178-1.04-7.067-2.928c-1.888-1.888-2.927-4.399-2.927-7.072 0-2.67 1.039-5.182 2.928-7.07zm-73-205.52c38.588 0 69.98 31.393 69.98 69.98v25.551l-28.321-28.321c-1.875-1.874-4.418-2.928-7.069-2.928s-5.194 1.054-7.069 2.928l-97.5 97.501v-94.73h-1e-3c1e-3 -38.588 31.392-69.981 69.98-69.981zm-0.764 463.08c-5.664 5.667-13.194 8.789-21.205 8.789-8.012 0-15.542-3.121-21.209-8.791l-127.24-127.23c-11.692-11.699-11.693-30.727-2e-3 -42.418l7.776-7.776 169.65 169.66-7.771 7.769zm190.87-186.72c-2.651 0-5.193 1.053-7.068 2.928l-161.89 161.88-169.65-169.66 75.595-75.596 107.5-107.5 35.39 35.392v60.545c-4.062 1.444-7.873 3.785-11.118 7.03-5.664 5.664-8.783 13.197-8.783 21.21 0 8.014 3.119 15.546 8.783 21.21s13.194 8.784 21.205 8.784c8.008 0 15.536-3.118 21.2-8.778 5.672-5.665 8.796-13.199 8.796-21.215s-3.124-15.55-8.792-21.211c-3.293-3.293-7.169-5.658-11.298-7.096v-40.483l132.55 132.56h-32.417z" fill="#656565" style="" data-original="#000000"/></g>
<g xmlns="http://www.w3.org/2000/svg"><path d="m184.08 200.19c-3.902-3.903-10.233-3.905-14.137 0l-84.835 84.825c-3.905 3.904-3.905 10.233-1e-3 14.138 1.951 1.952 4.511 2.928 7.069 2.928s5.117-0.976 7.068-2.928l84.835-84.825c3.904-3.904 3.904-10.233 1e-3 -14.138z" fill="#656565" style="" data-original="#000000"/></g><g xmlns="http://www.w3.org/2000/svg"><path d="m470.49 370.66c-1.828-2.92-5.03-4.694-8.475-4.694s-6.646 1.773-8.474 4.694c-6.932 11.076-41.511 67.527-41.511 91.278 0 27.562 22.424 49.985 49.985 49.985 27.562 0 49.985-22.423 49.985-49.985 2e-3 -23.751-34.578-80.204-41.51-91.278zm-8.473 121.27c-16.537 0-29.991-13.454-29.991-29.991 0-11.013 15.563-41.86 29.991-66.616 14.428 24.757 29.991 55.604 29.991 66.616 0 16.537-13.454 29.991-29.991 29.991z" fill="#656565" style="" data-original="#000000"/></g></svg>
