<?xml version="1.0" encoding="UTF-8"?>
<svg class="" enable-background="new 0 0 512 512" version="1.1" viewBox="0 0 512 512" xml:space="preserve" xmlns="http://www.w3.org/2000/svg"><g xmlns="http://www.w3.org/2000/svg"><path d="m352 0h-192c-22.08 0.026-39.974 17.92-40 40v432c0.026 22.08 17.92 39.974 40 40h192c22.08-0.026 39.974-17.92 40-40v-432c-0.026-22.08-17.92-39.974-40-40zm24 472c0 13.255-10.745 24-24 24h-192c-13.255 0-24-10.745-24-24v-48h240v48zm0-64h-240v-320h240v320zm0-336h-240v-32c0-13.255 10.745-24 24-24h192c13.255 0 24 10.745 24 24v32z" fill="#656565" style="" data-original="#000000"/></g><g xmlns="http://www.w3.org/2000/svg"><path d="m256 432c-13.255 0-24 10.745-24 24s10.745 24 24 24 24-10.745 24-24-10.745-24-24-24zm0 32c-4.418 0-8-3.582-8-8s3.582-8 8-8 8 3.582 8 8-3.582 8-8 8z" fill="#656565" style="" data-original="#000000"/></g>
<g xmlns="http://www.w3.org/2000/svg"><path d="m288 40h-64c-4.418 0-8 3.582-8 8s3.582 8 8 8h64c4.418 0 8-3.582 8-8s-3.582-8-8-8z" fill="#656565" style="" data-original="#000000"/></g><g xmlns="http://www.w3.org/2000/svg"><path d="m352 376h-8c-4.418 0-8 3.582-8 8s3.582 8 8 8h8c4.418 0 8-3.582 8-8s-3.582-8-8-8z" fill="#656565" style="" data-original="#000000"/></g><g xmlns="http://www.w3.org/2000/svg"><path d="m320 376h-8c-4.418 0-8 3.582-8 8s3.582 8 8 8h8c4.418 0 8-3.582 8-8s-3.582-8-8-8z" fill="#656565" style="" data-original="#000000"/></g><g xmlns="http://www.w3.org/2000/svg"><path d="m288 376h-8c-4.418 0-8 3.582-8 8s3.582 8 8 8h8c4.418 0 8-3.582 8-8s-3.582-8-8-8z" fill="#656565" style="" data-original="#000000"/></g></svg>
